<svg xmlns="http://www.w3.org/2000/svg" xmlns:xlink="http://www.w3.org/1999/xlink" width="24.089" height="23.642" viewBox="0 0 24.089 23.642"><defs><style>.a,.d{fill:none;stroke:#414bb2;}.b{fill:#ee2238;}.c{clip-path:url(#a);}.d{stroke-width:2.249px;}.e{clip-path:url(#b);}.f{clip-path:url(#c);}.g{fill:#fff;font-size:10px;font-family:OpenSans-Bold, Open Sans;font-weight:700;}</style><clipPath id="a"><path class="a" d="M275.148,464.095a11.532,11.532,0,0,1,.917-4.524,11.683,11.683,0,0,1,2.61-3.834,11.953,11.953,0,0,1,3.907-2.562,12.255,12.255,0,0,1,9.219,0,11.977,11.977,0,0,1,3.907,2.562,11.682,11.682,0,0,1,2.61,3.834,11.607,11.607,0,0,1,0,9.046,11.671,11.671,0,0,1-2.61,3.837,11.975,11.975,0,0,1-3.907,2.562,12.254,12.254,0,0,1-9.219,0,11.952,11.952,0,0,1-3.907-2.562,11.672,11.672,0,0,1-2.61-3.837A11.513,11.513,0,0,1,275.148,464.095Z" transform="translate(-275.148 -452.274)"/></clipPath><clipPath id="b"><rect class="b" width="20.338" height="20.332"/></clipPath><clipPath id="c"><path class="b" d="M277.335,464.521a10.168,10.168,0,1,1,2.978,7.188A9.772,9.772,0,0,1,277.335,464.521Z" transform="translate(-277.335 -454.355)"/></clipPath></defs><g transform="translate(-5973.052 1614.972)"><g transform="translate(5973.053 -1614.972)"><g transform="translate(-0.001 -0.001)"><g class="c"><path class="a" d="M299.237,464.095a11.658,11.658,0,0,1-.918,4.524,11.841,11.841,0,0,1-1.112,2.043,12.05,12.05,0,0,1-5.4,4.353,12.219,12.219,0,0,1-11.3-1.093,11.933,11.933,0,0,1-3.322-3.261,11.7,11.7,0,0,1-1.8-4.262,11.627,11.627,0,0,1,.685-6.83,11.69,11.69,0,0,1,1.113-2.043,11.938,11.938,0,0,1,3.322-3.261,12.234,12.234,0,0,1,9.042-1.765,12.12,12.12,0,0,1,4.34,1.765,11.836,11.836,0,0,1,4.437,5.3,11.659,11.659,0,0,1,.918,4.524Z" transform="translate(-275.148 -452.274)"/><path class="d" d="M299.237,464.095a11.658,11.658,0,0,1-.918,4.524,11.841,11.841,0,0,1-1.112,2.043,12.05,12.05,0,0,1-5.4,4.353,12.219,12.219,0,0,1-11.3-1.093,11.933,11.933,0,0,1-3.322-3.261,11.7,11.7,0,0,1-1.8-4.262,11.627,11.627,0,0,1,.685-6.83,11.69,11.69,0,0,1,1.113-2.043,11.938,11.938,0,0,1,3.322-3.261,12.234,12.234,0,0,1,9.042-1.765,12.122,12.122,0,0,1,6.167,3.235,11.8,11.8,0,0,1,2.61,3.834,11.659,11.659,0,0,1,.918,4.524Z" transform="translate(-275.148 -452.274)"/></g></g></g><g transform="translate(5974.944 -1613.314)"><g class="e"><g transform="translate(0.001 0)"><g class="f"><path class="b" d="M297.671,464.521a10.138,10.138,0,1,1-.772-3.891A10.1,10.1,0,0,1,297.671,464.521Z" transform="translate(-277.335 -454.355)"/></g></g></g></g><text class="g" transform="translate(5979.113 -1599.148)"><tspan x="0" y="0">EN</tspan></text></g></svg>