<svg xmlns="http://www.w3.org/2000/svg" xmlns:xlink="http://www.w3.org/1999/xlink" width="104" height="104" viewBox="0 0 104 104"><defs><style>.a{fill:url(#a);}.b{fill:none;}.c,.d{fill:#fff;}.c{fill-rule:evenodd;}.d{stroke:#fff;stroke-width:1.3px;}</style><linearGradient id="a" y1="1.878" x2="1.621" gradientUnits="objectBoundingBox"><stop offset="0" stop-color="#ee2238"/><stop offset="1" stop-color="#bf1d67"/></linearGradient></defs><g transform="translate(-6383 -9133)"><circle class="a" cx="52" cy="52" r="52" transform="translate(6383 9133)"/><g transform="translate(6390.919 9142.227)"><path class="b" d="M439.152,729.6H352.165a.621.621,0,0,1-.619-.619V641.993a.618.618,0,0,1,.619-.619h86.987a.618.618,0,0,1,.619.619V728.98A.621.621,0,0,1,439.152,729.6Z" transform="translate(-351.546 -641.374)"/><path class="c" d="M403.119,648.2h1.84a11.768,11.768,0,0,1,8.376,4.507l8.66,12.62a.619.619,0,0,1-.126.836l-6.312,5.007a.62.62,0,0,1-.857-.084l-4.975-5.8a.621.621,0,0,0-1.092.4V706.4a.618.618,0,0,1-.619.619h-35.52a.618.618,0,0,1-.619-.619V664.368a.622.622,0,0,0-1.123-.367l-4.849,6.655a.625.625,0,0,1-.875.129l-6.168-4.629a.625.625,0,0,1-.143-.843l8.446-12.606a11.764,11.764,0,0,1,8.387-4.507h1.84v12.722a.619.619,0,0,0,.815.588l1.6-.536,7.792-2.6a.62.62,0,0,1,.819.588v5.573a1.8,1.8,0,0,0,1.812,1.8h.025a1.836,1.836,0,0,0,1.837-1.8v-5.573a.619.619,0,0,1,.815-.588l7.8,2.6,1.6.536a.619.619,0,0,0,.815-.588Zm-4.741,4.171a10.346,10.346,0,0,1-2.747,1.991.615.615,0,0,0,.063,1.137l2.925,1.018a.621.621,0,0,0,.826-.584V652.79A.617.617,0,0,0,398.378,652.37Zm-13.5,1.994a10.516,10.516,0,0,1-2.75-1.994.615.615,0,0,0-1.064.42v3.145a.622.622,0,0,0,.826.584l2.929-1.022A.613.613,0,0,0,384.876,654.365Zm-19.068,21.784-11.861-9.213a.618.618,0,0,1-.133-.833L364.1,650.666a15.366,15.366,0,0,1,11.448-6.14h6.277a.616.616,0,0,1,.605.549,7.9,7.9,0,0,0,15.643,0,.621.621,0,0,1,.605-.546h6.28a15.354,15.354,0,0,1,11.434,6.14L426.7,666.11a.619.619,0,0,1-.126.826l-11.413,9.244a.619.619,0,0,1-.847-.063l-2-2.183V706.4a4.3,4.3,0,0,1-4.3,4.3h-35.52a4.3,4.3,0,0,1-4.3-4.3V673.933l-1.508,2.089A.618.618,0,0,1,365.808,676.148Z" transform="translate(-346.141 -633.498)"/></g><path class="d" d="M12.718.854q1.49,0,1.49,1.267,0,1.292-1.49,1.292H2.136a1.393,1.393,0,0,1-1.031-.385A1.329,1.329,0,0,1,.72,2.047,1.915,1.915,0,0,1,1.117.9l8.893-12.445H2.235q-1.49,0-1.49-1.267,0-1.292,1.49-1.292H12.495a1.393,1.393,0,0,1,1.031.385,1.3,1.3,0,0,1,.385.956,1.916,1.916,0,0,1-.422,1.143L4.6.854Z" transform="matrix(0.809, -0.588, 0.588, 0.809, 6432.815, 9198.672)"/></g></svg>