<svg xmlns="http://www.w3.org/2000/svg" xmlns:xlink="http://www.w3.org/1999/xlink" width="104" height="104" viewBox="0 0 104 104"><defs><style>.a{fill:url(#a);}.b{fill:#fff;stroke:rgba(0,0,0,0);stroke-miterlimit:10;}</style><linearGradient id="a" y1="1.878" x2="1.621" gradientUnits="objectBoundingBox"><stop offset="0" stop-color="#ee2238"/><stop offset="1" stop-color="#bf1d67"/></linearGradient></defs><g transform="translate(-370 -467)"><circle class="a" cx="52" cy="52" r="52" transform="translate(370 467)"/><path class="b" d="M16.235,70.713a3.786,3.786,0,0,1-1.534-1.3,3.215,3.215,0,0,1-.565-1.842,2.988,2.988,0,0,1,.688-2.1,4.162,4.162,0,0,1,2.258-1.081,22.287,22.287,0,0,1,4.369-.332h.54v-.81a3.225,3.225,0,0,0-.6-2.161,2.466,2.466,0,0,0-1.951-.687,7.207,7.207,0,0,0-3.387.908,2.244,2.244,0,0,1-.933.418.632.632,0,0,1-.491-.221.819.819,0,0,1-.2-.565.929.929,0,0,1,.209-.6,2.438,2.438,0,0,1,.675-.528,7.926,7.926,0,0,1,1.951-.773,8.642,8.642,0,0,1,2.172-.283q4.492,0,4.492,4.715v6.679a.986.986,0,0,1-.258.712.918.918,0,0,1-.7.27.928.928,0,0,1-.982-.982V68.97A3.51,3.51,0,0,1,20.566,70.6a4.188,4.188,0,0,1-2.209.577A4.82,4.82,0,0,1,16.235,70.713Zm2.025-5.194a3.208,3.208,0,0,0-1.608.614,1.615,1.615,0,0,0-.478,1.265,2.036,2.036,0,0,0,.7,1.584,2.537,2.537,0,0,0,1.755.626,3.191,3.191,0,0,0,2.418-.994,3.577,3.577,0,0,0,.945-2.567v-.712h-.442A22.059,22.059,0,0,0,18.259,65.519Zm23.389,5.317-6.405-5.525v4.837a.936.936,0,0,1-.282.725,1,1,0,0,1-.7.258,1.031,1.031,0,0,1-.724-.258.931.931,0,0,1-.282-.725V54.556c0-.161-.085-.3-.034-.429V49.769a.9.9,0,0,1,.807-.954A17.311,17.311,0,0,0,48.674,31.728a.929.929,0,0,1,.965-.939h1.914l.01-.025a.962.962,0,0,1,.961.963.947.947,0,0,1-.961.952h-1A19.115,19.115,0,0,1,35.22,50.572v3.744a1.315,1.315,0,0,1,.023.24v9.969l5.866-5.378a.914.914,0,0,1,.663-.294.922.922,0,0,1,.908.908.977.977,0,0,1-.344.737L37.5,64.82l5.3,4.616a1.076,1.076,0,0,1,.392.786.893.893,0,0,1-.257.639.836.836,0,0,1-.626.27A1.038,1.038,0,0,1,41.649,70.836Zm-13.8.037a.933.933,0,0,1-.283-.725V56.877a.921.921,0,0,1-.005-.155V50.572A19.1,19.1,0,0,1,12.19,32.678h-1a.946.946,0,0,1-.961-.951.926.926,0,0,1,.961-.937H13.11a.929.929,0,0,1,.959.94A17.214,17.214,0,0,0,28.619,48.815h0a1.061,1.061,0,0,1,.935.955v4.3c.07.138-.007.3-.007.49V70.148a.931.931,0,0,1-.282.725,1,1,0,0,1-.7.258A1.03,1.03,0,0,1,27.844,70.873ZM6.491,70.848a1.012,1.012,0,0,1-.283-.749V55.416H.932a.987.987,0,0,1-.687-.221.954.954,0,0,1,0-1.277A.992.992,0,0,1,.932,53.7H13.523a.992.992,0,0,1,.687.221.954.954,0,0,1,0,1.277.987.987,0,0,1-.687.221H8.246V70.1a1.041,1.041,0,0,1-.27.749.975.975,0,0,1-.737.283A1.01,1.01,0,0,1,6.491,70.848Zm24.841-24.7h0Zm-.016,0h0Zm.016,0A13.474,13.474,0,0,1,17.89,32.689v-.953a.953.953,0,0,1,.957-.947H39.985a.969.969,0,0,1,.97.807A.95.95,0,0,1,40,32.678H19.813a11.539,11.539,0,0,0,23.073.009V26.9H36.28a.947.947,0,0,1-.9-1.247.935.935,0,0,1,.9-.641h6.607V21.119H36.3a.968.968,0,0,1-.979-.886.945.945,0,0,1,.943-1h6.627v-3.89H36.146a.945.945,0,1,1-.008-1.89h6.748a11.556,11.556,0,0,0-23.108,0h2.887a.945.945,0,1,1,0,1.89H19.778v3.89h2.8a.971.971,0,0,1,.98.887.945.945,0,0,1-.943,1H19.778v3.891h2.83a.944.944,0,0,1,0,1.889h-2.83v.942a.944.944,0,0,1-1.889,0V13.614a13.443,13.443,0,1,1,26.886-.164V32.689A13.474,13.474,0,0,1,31.333,46.147Z" transform="translate(395.738 483.411)"/></g></svg>