<svg xmlns="http://www.w3.org/2000/svg" xmlns:xlink="http://www.w3.org/1999/xlink" width="44.875" height="42.599" viewBox="0 0 44.875 42.599"><defs><style>.a{fill:url(#a);}.b{fill:#fff;}.c{fill:none;}.d{clip-path:url(#e);}.e{clip-path:url(#f);}.f{clip-path:url(#k);}.g{clip-path:url(#l);}.h{clip-path:url(#o);}.i{fill-rule:evenodd;}</style><linearGradient id="a" x1="0.5" x2="0.5" y2="1" gradientUnits="objectBoundingBox"><stop offset="0" stop-color="#e22721"/><stop offset="0.32" stop-color="#e22721"/><stop offset="0.621" stop-color="#c01d66"/><stop offset="1" stop-color="#4610df"/></linearGradient><clipPath id="e"><rect class="a" width="44.875" height="42.599"/></clipPath><clipPath id="f"><path class="a" d="M360.018,399.335a20.167,20.167,0,0,1,1.71-8.153,21.036,21.036,0,0,1,4.862-6.909,22.36,22.36,0,0,1,7.28-4.617,23.547,23.547,0,0,1,17.17,0,22.3,22.3,0,0,1,7.28,4.617,21.093,21.093,0,0,1,4.866,6.909,20.322,20.322,0,0,1,0,16.3,21.062,21.062,0,0,1-4.866,6.909,22.266,22.266,0,0,1-7.277,4.617,23.513,23.513,0,0,1-17.174,0,22.31,22.31,0,0,1-7.28-4.617,21,21,0,0,1-4.862-6.909A20.153,20.153,0,0,1,360.018,399.335Z" transform="translate(-360.018 -378.034)"/></clipPath><clipPath id="k"><rect class="b" width="38.532" height="36.578"/></clipPath><clipPath id="l"><path class="b" d="M360.018,396.324a17.316,17.316,0,0,1,1.468-7,18.062,18.062,0,0,1,4.175-5.933,19.2,19.2,0,0,1,6.251-3.965,20.219,20.219,0,0,1,14.744,0,19.145,19.145,0,0,1,6.251,3.965,18.112,18.112,0,0,1,4.178,5.933,17.45,17.45,0,0,1,0,14,18.085,18.085,0,0,1-4.178,5.933,19.118,19.118,0,0,1-6.248,3.965,20.19,20.19,0,0,1-14.746,0,19.157,19.157,0,0,1-6.251-3.965,18.036,18.036,0,0,1-4.175-5.933A17.3,17.3,0,0,1,360.018,396.324Z" transform="translate(-360.018 -378.034)"/></clipPath><clipPath id="o"><rect class="c" width="23.381" height="31.874"/></clipPath></defs><g transform="translate(3379.267 -6543.776)"><g transform="translate(-1451.715 -290.887)"><g transform="translate(-1927.552 6834.663)"><g class="d"><g transform="translate(-0.001 0)"><g class="e"><path class="a" d="M404.893,399.335a20.431,20.431,0,0,1-1.707,8.15,20.965,20.965,0,0,1-2.074,3.683,21.463,21.463,0,0,1-2.791,3.226,22.337,22.337,0,0,1-3.4,2.65,22.6,22.6,0,0,1-3.879,1.967,23.279,23.279,0,0,1-4.21,1.213,23.706,23.706,0,0,1-8.754,0,23.137,23.137,0,0,1-4.21-1.213,22.6,22.6,0,0,1-3.879-1.967,22.2,22.2,0,0,1-3.4-2.65,21.464,21.464,0,0,1-2.791-3.226,20.951,20.951,0,0,1-2.071-3.683,20.5,20.5,0,0,1-1.278-4,20.195,20.195,0,0,1,0-8.31,20.432,20.432,0,0,1,1.278-4A20.845,20.845,0,0,1,363.8,387.5a21.486,21.486,0,0,1,2.791-3.229,21.989,21.989,0,0,1,3.4-2.647,22.843,22.843,0,0,1,3.879-1.97,23.562,23.562,0,0,1,17.174,0,22.842,22.842,0,0,1,3.879,1.97,22.123,22.123,0,0,1,3.4,2.647,21.485,21.485,0,0,1,2.791,3.229,20.859,20.859,0,0,1,2.074,3.683,20.433,20.433,0,0,1,1.707,8.15Z" transform="translate(-360.018 -378.034)"/></g></g></g></g><g transform="translate(-1927.552 6834.663)"><g class="d"><g transform="translate(-0.001 0)"><g class="e"><path class="a" d="M404.893,399.335a20.431,20.431,0,0,1-1.707,8.15,20.965,20.965,0,0,1-2.074,3.683,21.463,21.463,0,0,1-2.791,3.226,22.337,22.337,0,0,1-3.4,2.65,22.6,22.6,0,0,1-3.879,1.967,23.279,23.279,0,0,1-4.21,1.213,23.706,23.706,0,0,1-8.754,0,23.137,23.137,0,0,1-4.21-1.213,22.6,22.6,0,0,1-3.879-1.967,22.2,22.2,0,0,1-3.4-2.65,21.464,21.464,0,0,1-2.791-3.226,20.951,20.951,0,0,1-2.071-3.683,20.5,20.5,0,0,1-1.278-4,20.195,20.195,0,0,1,0-8.31,20.432,20.432,0,0,1,1.278-4A20.845,20.845,0,0,1,363.8,387.5a21.486,21.486,0,0,1,2.791-3.229,21.989,21.989,0,0,1,3.4-2.647,22.843,22.843,0,0,1,3.879-1.97,23.562,23.562,0,0,1,17.174,0,22.842,22.842,0,0,1,3.879,1.97,22.123,22.123,0,0,1,3.4,2.647,21.485,21.485,0,0,1,2.791,3.229,20.859,20.859,0,0,1,2.074,3.683,20.433,20.433,0,0,1,1.707,8.15Z" transform="translate(-360.018 -378.034)"/></g></g></g></g><g transform="translate(-1924.381 6837.674)"><g class="f"><g transform="translate(-0.001 0)"><g class="g"><path class="b" d="M398.55,396.324a17.543,17.543,0,0,1-1.465,7,18,18,0,0,1-1.781,3.162,18.427,18.427,0,0,1-2.4,2.77,19.178,19.178,0,0,1-2.918,2.276,19.4,19.4,0,0,1-3.331,1.689,19.988,19.988,0,0,1-3.615,1.042,20.356,20.356,0,0,1-7.516,0,19.866,19.866,0,0,1-3.615-1.042,19.4,19.4,0,0,1-3.331-1.689,19.061,19.061,0,0,1-2.92-2.276,18.431,18.431,0,0,1-2.4-2.77,17.989,17.989,0,0,1-1.779-3.162,17.6,17.6,0,0,1-1.1-3.431,17.341,17.341,0,0,1,0-7.135,17.543,17.543,0,0,1,1.1-3.431,17.9,17.9,0,0,1,1.779-3.162,18.452,18.452,0,0,1,2.4-2.773,18.881,18.881,0,0,1,2.92-2.273,19.616,19.616,0,0,1,3.331-1.692,20.232,20.232,0,0,1,14.746,0,19.615,19.615,0,0,1,3.331,1.692,19,19,0,0,1,2.918,2.273,18.448,18.448,0,0,1,2.4,2.773,17.91,17.91,0,0,1,1.781,3.162,17.544,17.544,0,0,1,1.465,7Z" transform="translate(-360.018 -378.034)"/></g></g></g></g><g transform="translate(-1924.381 6837.674)"><g class="f"><g transform="translate(-0.001 0)"><g class="g"><path class="b" d="M398.55,396.324a17.543,17.543,0,0,1-1.465,7,18,18,0,0,1-1.781,3.162,18.427,18.427,0,0,1-2.4,2.77,19.178,19.178,0,0,1-2.918,2.276,19.4,19.4,0,0,1-3.331,1.689,19.988,19.988,0,0,1-3.615,1.042,20.356,20.356,0,0,1-7.516,0,19.866,19.866,0,0,1-3.615-1.042,19.4,19.4,0,0,1-3.331-1.689,19.061,19.061,0,0,1-2.92-2.276,18.431,18.431,0,0,1-2.4-2.77,17.989,17.989,0,0,1-1.779-3.162,17.6,17.6,0,0,1-1.1-3.431,17.341,17.341,0,0,1,0-7.135,17.543,17.543,0,0,1,1.1-3.431,17.9,17.9,0,0,1,1.779-3.162,18.452,18.452,0,0,1,2.4-2.773,18.881,18.881,0,0,1,2.92-2.273,19.616,19.616,0,0,1,3.331-1.692,20.232,20.232,0,0,1,14.746,0,19.615,19.615,0,0,1,3.331,1.692,19,19,0,0,1,2.918,2.273,18.448,18.448,0,0,1,2.4,2.773,17.91,17.91,0,0,1,1.781,3.162,17.544,17.544,0,0,1,1.465,7Z" transform="translate(-360.018 -378.034)"/></g></g></g></g><g transform="translate(-1916.805 6837.674)"><g class="h" transform="translate(0 3)"><path class="i" d="M375.214,384.175a7.446,7.446,0,0,1-7.439-7.436v-.53a.531.531,0,0,1,.53-.533H380a.532.532,0,0,1,0,1.063H368.838a6.376,6.376,0,1,0,12.752,0v-3.186h-3.72a.532.532,0,1,1,0-1.063h3.72v-2.126h-3.72a.53.53,0,1,1,0-1.06h3.72v-2.126h-3.72a.532.532,0,1,1,0-1.063h3.72a6.376,6.376,0,0,0-12.752,0h1.593a.532.532,0,0,1,0,1.063h-1.593V369.3h1.593a.53.53,0,1,1,0,1.06h-1.593v2.126h1.593a.532.532,0,0,1,0,1.063h-1.593v.53a.532.532,0,0,1-1.063,0v-7.969a7.439,7.439,0,0,1,14.879,0v10.626a7.446,7.446,0,0,1-7.439,7.436m-1.523,1.474a9.512,9.512,0,0,1-8.043-9.44.533.533,0,0,0-.53-.533h-1.063a.532.532,0,1,0,0,1.063h.555a10.556,10.556,0,0,0,8.478,9.881v3.4a.532.532,0,1,0,1.063,0v-3.842a.534.534,0,0,0-.46-.527m12.682-9.973H385.31a.533.533,0,0,0-.533.533,9.512,9.512,0,0,1-8.034,9.44.528.528,0,0,0-.466.527v3.842a.53.53,0,1,0,1.06,0v-3.4a10.562,10.562,0,0,0,8.481-9.881h.555a.532.532,0,0,0,0-1.063" transform="translate(-363.523 -358.677)"/></g></g></g></g></svg>