<svg xmlns="http://www.w3.org/2000/svg" xmlns:xlink="http://www.w3.org/1999/xlink" width="104" height="104" viewBox="0 0 104 104"><defs><style>.a{fill:url(#a);}.b,.e{fill:none;}.b{stroke:#fff2f2;stroke-width:3px;}.c{fill:#fff;}.d{stroke:none;}</style><linearGradient id="a" y1="1.878" x2="1.621" gradientUnits="objectBoundingBox"><stop offset="0" stop-color="#ee2238"/><stop offset="1" stop-color="#bf1d67"/></linearGradient></defs><g transform="translate(10740 6325) rotate(180)"><circle class="a" cx="52" cy="52" r="52" transform="translate(10636 6221)"/><g class="b" transform="translate(10652 6241)"><rect class="d" width="73" height="60" rx="13"/><rect class="e" x="1.5" y="1.5" width="70" height="57" rx="11.5"/></g><g transform="translate(10762.719 6256.738) rotate(126)"><rect class="c" width="2" height="2" transform="translate(35.749 40.381)"/><path class="c" d="M39.21,17.169l.187.258c-.8,0-8.952,7.885-9.518,8.452A3,3,0,0,0,32,31h4a1,1,0,0,1,1,1v1H34a5.006,5.006,0,0,0-5,5V58a5.006,5.006,0,0,0,5,5h8a5.006,5.006,0,0,0,5-5V38a5.006,5.006,0,0,0-5-5H39V32a3,3,0,0,0-3-3H32a1,1,0,0,1-.707-1.707c.189-.189,7.837-7.866,8.1-7.866l-.187-.258C40.012,19.169,39.478,17.169,39.21,17.169ZM42,61H34a3,3,0,0,1-3-3V43H45V58A3,3,0,0,1,42,61Zm3-23v3H31V38a3,3,0,0,1,3-3h8A3,3,0,0,1,45,38Z" transform="translate(-1.251 3.381)"/></g></g><g transform="translate(32 31)"><rect class="c" width="2" height="2" transform="translate(45 17)"/><rect class="c" width="2" height="2" transform="translate(41 17)"/><rect class="c" width="2" height="2" transform="translate(37 17)"/><rect class="c" width="2" height="2" transform="translate(33 17)"/><rect class="c" width="2" height="2" transform="translate(29 17)"/><rect class="c" width="2" height="2" transform="translate(29 5)"/><rect class="c" width="2" height="2" transform="translate(29 13)"/><rect class="c" width="2" height="2" transform="translate(29 9)"/><rect class="c" width="2" height="2" transform="translate(29 1)"/><rect class="c" width="2" height="2" transform="translate(33 1)"/><rect class="c" width="2" height="2" transform="translate(37 1)"/><rect class="c" width="2" height="2" transform="translate(41 1)"/><rect class="c" width="2" height="2" transform="translate(45 1)"/><rect class="c" width="2" height="2" transform="translate(45 13)"/><rect class="c" width="2" height="2" transform="translate(45 5)"/><rect class="c" width="2" height="2" transform="translate(45 9)"/><path class="c" d="M43,5H33V15H43Zm-2,8H35V7h6Z"/></g><path class="c" d="M22,1H18a3,3,0,0,0-3,3V55h.013a.98.98,0,0,0,.119.5l4,7a1,1,0,0,0,1.736,0l4-7a.98.98,0,0,0,.119-.5H25V4a3,3,0,0,0-3-3ZM17,4a1,1,0,0,1,1-1h4a1,1,0,0,1,1,1V7H17Zm2,5V50.586l-2,2V9Zm1,50.984-2.753-4.817L20,52.414l2.753,2.753Zm3-7.4-2-2V9h2Z" transform="matrix(-0.602, 0.799, -0.799, -0.602, 89.593, 57.487)"/></svg>