<svg xmlns="http://www.w3.org/2000/svg" xmlns:xlink="http://www.w3.org/1999/xlink" width="44.875" height="42.6" viewBox="0 0 44.875 42.6"><defs><style>.a{fill:url(#a);}.b{fill:#fff;}.c{clip-path:url(#e);}.d{clip-path:url(#f);}.e{clip-path:url(#k);}.f{clip-path:url(#l);}.g,.h{fill:none;stroke:#000;}.g{stroke-miterlimit:10;stroke-width:0.394px;}.h{stroke-width:1.181px;}</style><linearGradient id="a" x1="0.5" x2="0.5" y2="1" gradientUnits="objectBoundingBox"><stop offset="0" stop-color="#e22721"/><stop offset="0.32" stop-color="#e22721"/><stop offset="0.621" stop-color="#c01d66"/><stop offset="1" stop-color="#4610df"/></linearGradient><clipPath id="e"><rect class="a" width="44.875" height="42.599"/></clipPath><clipPath id="f"><path class="a" d="M360.018,399.335a20.167,20.167,0,0,1,1.71-8.153,21.036,21.036,0,0,1,4.862-6.909,22.36,22.36,0,0,1,7.28-4.617,23.547,23.547,0,0,1,17.17,0,22.3,22.3,0,0,1,7.28,4.617,21.093,21.093,0,0,1,4.866,6.909,20.322,20.322,0,0,1,0,16.3,21.062,21.062,0,0,1-4.866,6.909,22.266,22.266,0,0,1-7.277,4.617,23.513,23.513,0,0,1-17.174,0,22.31,22.31,0,0,1-7.28-4.617,21,21,0,0,1-4.862-6.909A20.153,20.153,0,0,1,360.018,399.335Z" transform="translate(-360.018 -378.034)"/></clipPath><clipPath id="k"><rect class="b" width="38.532" height="36.578"/></clipPath><clipPath id="l"><path class="b" d="M360.018,396.324a17.316,17.316,0,0,1,1.468-7,18.062,18.062,0,0,1,4.175-5.933,19.2,19.2,0,0,1,6.251-3.965,20.219,20.219,0,0,1,14.744,0,19.145,19.145,0,0,1,6.251,3.965,18.112,18.112,0,0,1,4.178,5.933,17.45,17.45,0,0,1,0,14,18.085,18.085,0,0,1-4.178,5.933,19.118,19.118,0,0,1-6.248,3.965,20.19,20.19,0,0,1-14.746,0,19.157,19.157,0,0,1-6.251-3.965,18.036,18.036,0,0,1-4.175-5.933A17.3,17.3,0,0,1,360.018,396.324Z" transform="translate(-360.018 -378.034)"/></clipPath></defs><g transform="translate(1927.552 -6834.663)"><g transform="translate(-1927.552 6834.663)"><g class="c"><g transform="translate(-0.001 0)"><g class="d"><path class="a" d="M404.893,399.335a20.431,20.431,0,0,1-1.707,8.15,20.965,20.965,0,0,1-2.074,3.683,21.463,21.463,0,0,1-2.791,3.226,22.337,22.337,0,0,1-3.4,2.65,22.6,22.6,0,0,1-3.879,1.967,23.279,23.279,0,0,1-4.21,1.213,23.706,23.706,0,0,1-8.754,0,23.137,23.137,0,0,1-4.21-1.213,22.6,22.6,0,0,1-3.879-1.967,22.2,22.2,0,0,1-3.4-2.65,21.464,21.464,0,0,1-2.791-3.226,20.951,20.951,0,0,1-2.071-3.683,20.5,20.5,0,0,1-1.278-4,20.195,20.195,0,0,1,0-8.31,20.432,20.432,0,0,1,1.278-4A20.845,20.845,0,0,1,363.8,387.5a21.486,21.486,0,0,1,2.791-3.229,21.989,21.989,0,0,1,3.4-2.647,22.843,22.843,0,0,1,3.879-1.97,23.562,23.562,0,0,1,17.174,0,22.842,22.842,0,0,1,3.879,1.97,22.123,22.123,0,0,1,3.4,2.647,21.485,21.485,0,0,1,2.791,3.229,20.859,20.859,0,0,1,2.074,3.683,20.433,20.433,0,0,1,1.707,8.15Z" transform="translate(-360.018 -378.034)"/></g></g></g></g><g transform="translate(-1927.552 6834.663)"><g class="c"><g transform="translate(-0.001 0)"><g class="d"><path class="a" d="M404.893,399.335a20.431,20.431,0,0,1-1.707,8.15,20.965,20.965,0,0,1-2.074,3.683,21.463,21.463,0,0,1-2.791,3.226,22.337,22.337,0,0,1-3.4,2.65,22.6,22.6,0,0,1-3.879,1.967,23.279,23.279,0,0,1-4.21,1.213,23.706,23.706,0,0,1-8.754,0,23.137,23.137,0,0,1-4.21-1.213,22.6,22.6,0,0,1-3.879-1.967,22.2,22.2,0,0,1-3.4-2.65,21.464,21.464,0,0,1-2.791-3.226,20.951,20.951,0,0,1-2.071-3.683,20.5,20.5,0,0,1-1.278-4,20.195,20.195,0,0,1,0-8.31,20.432,20.432,0,0,1,1.278-4A20.845,20.845,0,0,1,363.8,387.5a21.486,21.486,0,0,1,2.791-3.229,21.989,21.989,0,0,1,3.4-2.647,22.843,22.843,0,0,1,3.879-1.97,23.562,23.562,0,0,1,17.174,0,22.842,22.842,0,0,1,3.879,1.97,22.123,22.123,0,0,1,3.4,2.647,21.485,21.485,0,0,1,2.791,3.229,20.859,20.859,0,0,1,2.074,3.683,20.433,20.433,0,0,1,1.707,8.15Z" transform="translate(-360.018 -378.034)"/></g></g></g></g><g transform="translate(-1924.381 6837.674)"><g class="e"><g transform="translate(-0.001 0)"><g class="f"><path class="b" d="M398.55,396.324a17.543,17.543,0,0,1-1.465,7,18,18,0,0,1-1.781,3.162,18.427,18.427,0,0,1-2.4,2.77,19.178,19.178,0,0,1-2.918,2.276,19.4,19.4,0,0,1-3.331,1.689,19.988,19.988,0,0,1-3.615,1.042,20.356,20.356,0,0,1-7.516,0,19.866,19.866,0,0,1-3.615-1.042,19.4,19.4,0,0,1-3.331-1.689,19.061,19.061,0,0,1-2.92-2.276,18.431,18.431,0,0,1-2.4-2.77,17.989,17.989,0,0,1-1.779-3.162,17.6,17.6,0,0,1-1.1-3.431,17.341,17.341,0,0,1,0-7.135,17.543,17.543,0,0,1,1.1-3.431,17.9,17.9,0,0,1,1.779-3.162,18.452,18.452,0,0,1,2.4-2.773,18.881,18.881,0,0,1,2.92-2.273,19.616,19.616,0,0,1,3.331-1.692,20.232,20.232,0,0,1,14.746,0,19.615,19.615,0,0,1,3.331,1.692,19,19,0,0,1,2.918,2.273,18.448,18.448,0,0,1,2.4,2.773,17.91,17.91,0,0,1,1.781,3.162,17.544,17.544,0,0,1,1.465,7Z" transform="translate(-360.018 -378.034)"/></g></g></g></g><g transform="translate(-2117.53 6613.841)"><rect class="g" width="28.731" height="23.615" rx="5.116" transform="translate(198.05 230.314)"/><rect class="h" width="27.55" height="22.434" rx="4.526" transform="translate(198.641 230.905)"/><rect width="0.787" height="0.787" transform="matrix(0.588, -0.809, 0.809, 0.588, 204.333, 245.694)"/><path d="M198.53,240.4h.125a36.67,36.67,0,0,0,.49,4.986,1.18,1.18,0,0,0,2.121.51l.925-1.274a.394.394,0,0,1,.55-.087l.318.231-.694.955a1.971,1.971,0,0,0,.436,2.749l6.368,4.627a1.971,1.971,0,0,0,2.749-.435l1.85-2.548a1.969,1.969,0,0,0-.435-2.748l-6.368-4.627a1.97,1.97,0,0,0-2.749.435l-.694.955-.318-.231a1.182,1.182,0,0,0-1.65.261l-.925,1.274a.393.393,0,0,1-.707-.17c-.016-.1-.692-4.315-.631-4.4h-.125C199.352,240.61,198.592,240.317,198.53,240.4Zm14.6,9.252-1.851,2.547a1.181,1.181,0,0,1-1.649.261h0l-4.777-3.47,3.239-4.458L212.87,248a1.182,1.182,0,0,1,.262,1.65Zm-6.63-6.276.955.694-3.238,4.457-.956-.694a1.181,1.181,0,0,1-.261-1.649l1.851-2.547A1.179,1.179,0,0,1,206.5,243.378Z"/><rect width="0.787" height="0.787" transform="translate(222.452 239.76)"/><rect width="0.787" height="0.787" transform="translate(220.878 239.76)"/><rect width="0.787" height="0.787" transform="translate(219.304 239.76)"/><rect width="0.787" height="0.787" transform="translate(217.729 239.76)"/><rect width="0.787" height="0.787" transform="translate(216.155 239.76)"/><rect width="0.787" height="0.787" transform="translate(216.155 235.037)"/><rect width="0.787" height="0.787" transform="translate(216.155 238.186)"/><rect width="0.787" height="0.787" transform="translate(216.155 236.611)"/><rect width="0.787" height="0.787" transform="translate(216.155 233.463)"/><rect width="0.787" height="0.787" transform="translate(217.729 233.463)"/><rect width="0.787" height="0.787" transform="translate(219.304 233.463)"/><rect width="0.787" height="0.787" transform="translate(220.878 233.463)"/><rect width="0.787" height="0.787" transform="translate(222.452 233.463)"/><rect width="0.787" height="0.787" transform="translate(222.452 238.186)"/><rect width="0.787" height="0.787" transform="translate(222.452 235.037)"/><rect width="0.787" height="0.787" transform="translate(222.452 236.611)"/><path d="M221.665,235.037h-3.936v3.936h3.936Zm-.787,3.149h-2.362v-2.362h2.362Z"/><path d="M221.881,250.175l.948-1.258a1.181,1.181,0,0,0-.232-1.654L206.559,235.18l0,0a.39.39,0,0,0-.186-.081l-3.149-.4a.394.394,0,0,0-.44.341.39.39,0,0,0,.029.205l1.253,2.916a.38.38,0,0,0,.13.156l0,0,16.038,12.084A1.181,1.181,0,0,0,221.881,250.175Zm.242-2.283a.394.394,0,0,1,.077.551l-.947,1.258a.394.394,0,0,1-.552.078l-.943-.711,1.421-1.887Zm-2.046-.556L207,237.483l-.155-1.1,13.706,10.327Zm-16.27-11.765,2.167.276.213,1.518-1.518.213Zm1.616,2.7,1.1-.155,13.077,9.852-.474.629Z"/></g></g></svg>