<svg xmlns="http://www.w3.org/2000/svg" width="48.2" height="48.2" viewBox="0 0 48.2 48.2"><defs><style>.a{fill:none;}.b{fill:#fff;}</style></defs><g transform="translate(87.856 84.6)"><path class="a" d="M401.7,91.9A24.1,24.1,0,1,0,425.8,116,24.113,24.113,0,0,0,401.7,91.9Z" transform="translate(-465.456 -176.5)"/><circle class="a" cx="16.5" cy="16.5" r="16.5" transform="translate(-80.256 -77)"/><path class="b" d="M42.756,19.5H22.733A6.732,6.732,0,0,0,16,26.233V45.767A6.732,6.732,0,0,0,22.733,52.5H42.756a6.732,6.732,0,0,0,6.733-6.733V26.233A6.732,6.732,0,0,0,42.756,19.5ZM32.744,43.884A7.884,7.884,0,1,1,40.628,36,7.884,7.884,0,0,1,32.744,43.884Zm10.165-15.97a1.681,1.681,0,1,1,1.681-1.681A1.682,1.682,0,0,1,42.909,27.914Z" transform="translate(-96.256 -104.1)"/></g></svg>