<svg xmlns="http://www.w3.org/2000/svg" width="40.819" height="33" viewBox="0 0 40.819 33"><defs><style>.a{fill:#fff;}</style></defs><path class="a" d="M40.652,3.92a17.616,17.616,0,0,1-4.13,4.27l-.049.034q.025.36.025,1.082a23.651,23.651,0,0,1-1.024,6.857L35.517,16a24.144,24.144,0,0,1-3.033,6.495l.055-.089a25.422,25.422,0,0,1-4.723,5.4l-.033.027a21.081,21.081,0,0,1-6.5,3.718l-.148.045A23.858,23.858,0,0,1,12.981,33h-.349A23.009,23.009,0,0,1-.064,29.2l.087.054a17.265,17.265,0,0,0,1.919.1h.264a16.229,16.229,0,0,0,10.2-3.583l-.032.025A8.35,8.35,0,0,1,4.6,20.086l-.016-.059a10.213,10.213,0,0,0,1.569.129h0a8.606,8.606,0,0,0,2.251-.3l-.06.014a8.221,8.221,0,0,1-4.771-2.86L3.568,17a8,8,0,0,1-1.9-5.187c0-.038,0-.077,0-.115v-.1a8.142,8.142,0,0,0,3.749,1.056h.015A8.379,8.379,0,0,1,2.753,9.726l-.022-.043a8.357,8.357,0,0,1,.15-8.212L2.86,1.51A23.771,23.771,0,0,0,10.319,7.6l.131.062a22.84,22.84,0,0,0,9.524,2.563h.052a9,9,0,0,1-.2-1.9h0a8.335,8.335,0,0,1,14.4-5.7l0,0A16.3,16.3,0,0,0,39.582.572l-.073.041a8.13,8.13,0,0,1-3.623,4.569l-.038.021a16.56,16.56,0,0,0,4.907-1.33l-.106.043Z" transform="translate(0.064 0.004)"/></svg>