<svg xmlns="http://www.w3.org/2000/svg" width="46.588" height="33" viewBox="0 0 46.588 33"><defs><style>.a{fill:#fff;fill-rule:evenodd;}</style></defs><g transform="translate(0 0)"><g transform="translate(0 0)"><path class="a" d="M218.484,390.586l0-13.183,12.588,6.614Zm27.638-15.467s-.456-3.232-1.852-4.657a6.631,6.631,0,0,0-4.667-1.987c-6.52-.475-16.3-.475-16.3-.475h-.021s-9.779,0-16.3.476a6.626,6.626,0,0,0-4.668,1.986c-1.4,1.424-1.851,4.657-1.851,4.657a71.485,71.485,0,0,0-.466,7.594v3.561a71.437,71.437,0,0,0,.466,7.593s.454,3.233,1.851,4.657c1.773,1.869,4.1,1.811,5.137,2.006,3.727.36,15.84.472,15.84.472s9.789-.014,16.309-.49a6.638,6.638,0,0,0,4.667-1.988c1.4-1.424,1.852-4.657,1.852-4.657a71.415,71.415,0,0,0,.466-7.593v-3.56A71.485,71.485,0,0,0,246.122,375.118Z" transform="translate(-200 -368)"/></g></g></svg>