<?xml version="1.0" encoding="utf-8"?>
<!-- Generator: Adobe Illustrator 21.1.0, SVG Export Plug-In . SVG Version: 6.00 Build 0)  -->
<!DOCTYPE svg PUBLIC "-//W3C//DTD SVG 1.1//EN" "http://www.w3.org/Graphics/SVG/1.1/DTD/svg11.dtd" [
	<!ENTITY ns_extend "http://ns.adobe.com/Extensibility/1.0/">
	<!ENTITY ns_ai "http://ns.adobe.com/AdobeIllustrator/10.0/">
	<!ENTITY ns_graphs "http://ns.adobe.com/Graphs/1.0/">
	<!ENTITY ns_vars "http://ns.adobe.com/Variables/1.0/">
	<!ENTITY ns_imrep "http://ns.adobe.com/ImageReplacement/1.0/">
	<!ENTITY ns_sfw "http://ns.adobe.com/SaveForWeb/1.0/">
	<!ENTITY ns_custom "http://ns.adobe.com/GenericCustomNamespace/1.0/">
	<!ENTITY ns_adobe_xpath "http://ns.adobe.com/XPath/1.0/">
]>
<svg version="1.1" id="Calque_1" xmlns:x="&ns_extend;" xmlns:i="&ns_ai;" xmlns:graph="&ns_graphs;"
	 xmlns="http://www.w3.org/2000/svg" xmlns:xlink="http://www.w3.org/1999/xlink" x="0px" y="0px" viewBox="0 0 595.3 841.9"
	 style="enable-background:new 0 0 595.3 841.9;" xml:space="preserve">
<style type="text/css">
	.st0{fill:#FFFFFF;}
	.st1{fill:#FFFFFF;}
	.st2{fill:#B31734;}
</style>
<g i:extraneous="self">
	<g>
		<path class="st0" d="M150.4,577.7l9.2-4.8v1.5c0,0.1,0,0.3-0.1,0.4s-0.2,0.2-0.3,0.3l-5.4,2.7c-0.2,0.1-0.3,0.2-0.5,0.2
			c-0.2,0.1-0.4,0.1-0.6,0.2c0.2,0,0.4,0.1,0.6,0.2c0.2,0.1,0.3,0.1,0.5,0.2l5.4,2.7c0.2,0.1,0.3,0.2,0.3,0.3s0.1,0.2,0.1,0.3v1.5
			l-9.2-4.8V577.7z"/>
		<path class="st0" d="M175,586.2h-0.9c-0.2,0-0.4,0-0.5-0.1c-0.1-0.1-0.2-0.2-0.3-0.4l-0.2-1.1c-0.3,0.3-0.6,0.5-0.9,0.8
			c-0.3,0.2-0.6,0.4-1,0.6s-0.7,0.3-1.1,0.4c-0.4,0.1-0.8,0.1-1.3,0.1c-0.5,0-0.9-0.1-1.3-0.2c-0.4-0.1-0.8-0.3-1.1-0.6
			c-0.3-0.3-0.5-0.6-0.7-1c-0.2-0.4-0.3-0.9-0.3-1.4c0-0.5,0.1-0.9,0.4-1.4c0.3-0.4,0.7-0.8,1.3-1.2c0.6-0.3,1.3-0.6,2.3-0.8
			s2.1-0.3,3.5-0.3v-0.9c0-0.9-0.2-1.7-0.6-2.1c-0.4-0.5-1-0.7-1.8-0.7c-0.5,0-1,0.1-1.3,0.2c-0.4,0.1-0.7,0.3-0.9,0.4
			s-0.5,0.3-0.7,0.4c-0.2,0.1-0.4,0.2-0.6,0.2c-0.1,0-0.3,0-0.4-0.1c-0.1-0.1-0.2-0.2-0.3-0.3l-0.4-0.7c0.7-0.6,1.4-1.1,2.2-1.4
			c0.8-0.3,1.6-0.5,2.6-0.5c0.7,0,1.3,0.1,1.8,0.3s1,0.5,1.3,0.9s0.6,0.9,0.8,1.4c0.2,0.6,0.3,1.2,0.3,1.9V586.2z M169.5,584.9
			c0.4,0,0.7,0,1-0.1c0.3-0.1,0.6-0.2,0.9-0.3c0.3-0.1,0.5-0.3,0.8-0.5c0.3-0.2,0.5-0.4,0.7-0.7v-2.5c-1,0-1.8,0.1-2.5,0.2
			c-0.7,0.1-1.2,0.3-1.7,0.5c-0.4,0.2-0.7,0.4-0.9,0.7c-0.2,0.3-0.3,0.6-0.3,0.9c0,0.3,0.1,0.6,0.2,0.8c0.1,0.2,0.2,0.4,0.4,0.6
			c0.2,0.1,0.4,0.3,0.6,0.3C169,584.8,169.2,584.9,169.5,584.9z"/>
		<path class="st0" d="M180.1,586.2v-12.1h1.3c0.3,0,0.5,0.1,0.6,0.4l0.2,1.3c0.5-0.6,1.1-1,1.8-1.4c0.6-0.4,1.4-0.5,2.2-0.5
			c0.7,0,1.2,0.1,1.7,0.3c0.5,0.2,0.9,0.5,1.3,0.9c0.3,0.4,0.6,0.9,0.8,1.5c0.2,0.6,0.3,1.2,0.3,1.9v7.7h-2.1v-7.7
			c0-0.9-0.2-1.6-0.6-2.1s-1.1-0.8-1.9-0.8c-0.6,0-1.2,0.2-1.8,0.5c-0.5,0.3-1,0.7-1.5,1.2v8.9H180.1z"/>
		<path class="st0" d="M198.1,570.3c0,0.2,0,0.4-0.1,0.6s-0.2,0.3-0.3,0.5c-0.1,0.1-0.3,0.2-0.5,0.3c-0.2,0.1-0.4,0.1-0.6,0.1
			c-0.2,0-0.4,0-0.6-0.1c-0.2-0.1-0.3-0.2-0.5-0.3c-0.1-0.1-0.2-0.3-0.3-0.5s-0.1-0.4-0.1-0.6s0-0.4,0.1-0.6
			c0.1-0.2,0.2-0.3,0.3-0.5c0.1-0.1,0.3-0.2,0.5-0.3c0.2-0.1,0.4-0.1,0.6-0.1c0.2,0,0.4,0,0.6,0.1c0.2,0.1,0.3,0.2,0.5,0.3
			c0.1,0.1,0.3,0.3,0.3,0.5C198.1,569.9,198.1,570.1,198.1,570.3z M197.7,574.1v12.1h-2.1v-12.1H197.7z"/>
		<path class="st0" d="M203.3,586.2v-12.1h1.3c0.3,0,0.5,0.1,0.6,0.4l0.2,1.2c0.4-0.5,0.9-1,1.5-1.3c0.6-0.3,1.2-0.5,1.9-0.5
			c0.8,0,1.5,0.2,2,0.7c0.5,0.5,0.9,1.1,1.1,1.8c0.2-0.4,0.4-0.8,0.7-1.1c0.3-0.3,0.6-0.6,0.9-0.8c0.3-0.2,0.7-0.4,1.1-0.5
			c0.4-0.1,0.8-0.1,1.2-0.1c0.6,0,1.2,0.1,1.7,0.3c0.5,0.2,0.9,0.5,1.3,0.9c0.3,0.4,0.6,0.9,0.8,1.4c0.2,0.6,0.3,1.2,0.3,2v7.7
			h-2.1v-7.7c0-0.9-0.2-1.7-0.6-2.2c-0.4-0.5-1-0.7-1.8-0.7c-0.3,0-0.7,0.1-1,0.2c-0.3,0.1-0.6,0.3-0.8,0.5
			c-0.2,0.2-0.4,0.5-0.6,0.9c-0.1,0.4-0.2,0.8-0.2,1.3v7.7h-2.1v-7.7c0-1-0.2-1.7-0.6-2.2c-0.4-0.5-1-0.7-1.7-0.7
			c-0.5,0-1,0.1-1.5,0.4s-0.9,0.7-1.2,1.2v9H203.3z"/>
		<path class="st0" d="M229.6,573.9c0.7,0,1.4,0.1,2,0.4c0.6,0.2,1.1,0.6,1.6,1c0.4,0.5,0.8,1,1,1.7s0.4,1.4,0.4,2.3
			c0,0.3,0,0.6-0.1,0.7s-0.2,0.2-0.4,0.2h-8c0,0.8,0.1,1.4,0.3,2s0.5,1,0.8,1.4c0.3,0.4,0.7,0.7,1.2,0.8c0.5,0.2,1,0.3,1.6,0.3
			c0.5,0,1-0.1,1.4-0.2c0.4-0.1,0.7-0.3,1-0.4c0.3-0.1,0.5-0.3,0.7-0.4c0.2-0.1,0.3-0.2,0.5-0.2c0.2,0,0.3,0.1,0.4,0.2l0.6,0.8
			c-0.3,0.3-0.6,0.6-0.9,0.8c-0.4,0.2-0.8,0.4-1.2,0.6s-0.8,0.3-1.3,0.3s-0.9,0.1-1.3,0.1c-0.8,0-1.6-0.1-2.3-0.4
			c-0.7-0.3-1.3-0.7-1.8-1.2c-0.5-0.5-0.9-1.2-1.2-2c-0.3-0.8-0.4-1.7-0.4-2.8c0-0.8,0.1-1.6,0.4-2.4c0.3-0.7,0.6-1.4,1.1-1.9
			c0.5-0.5,1.1-1,1.8-1.3C227.9,574.1,228.7,573.9,229.6,573.9z M229.6,575.5c-1,0-1.8,0.3-2.4,0.9c-0.6,0.6-1,1.4-1.1,2.5h6.6
			c0-0.5-0.1-0.9-0.2-1.4s-0.3-0.8-0.6-1.1c-0.3-0.3-0.6-0.5-1-0.7C230.6,575.6,230.1,575.5,229.6,575.5z M233.1,568.9l-2.8,3.1
			c-0.1,0.1-0.2,0.2-0.3,0.3s-0.2,0.1-0.4,0.1h-1.3l1.8-2.9c0.1-0.2,0.2-0.3,0.4-0.4c0.1-0.1,0.3-0.1,0.6-0.1H233.1z"/>
		<path class="st0" d="M246.1,576.1c-0.1,0.2-0.2,0.3-0.4,0.3c-0.1,0-0.3,0-0.4-0.1c-0.2-0.1-0.3-0.2-0.6-0.3
			c-0.2-0.1-0.5-0.2-0.8-0.3c-0.3-0.1-0.7-0.1-1.1-0.1c-0.4,0-0.7,0-1,0.1s-0.5,0.2-0.7,0.4c-0.2,0.2-0.4,0.3-0.5,0.6
			c-0.1,0.2-0.2,0.4-0.2,0.7c0,0.3,0.1,0.6,0.3,0.8c0.2,0.2,0.4,0.4,0.7,0.5c0.3,0.2,0.6,0.3,1,0.4c0.4,0.1,0.8,0.2,1.2,0.4
			c0.4,0.1,0.8,0.3,1.2,0.4c0.4,0.2,0.7,0.4,1,0.6c0.3,0.2,0.5,0.5,0.7,0.9c0.2,0.3,0.3,0.8,0.3,1.2c0,0.6-0.1,1.1-0.3,1.5
			c-0.2,0.5-0.5,0.9-0.9,1.2c-0.4,0.3-0.9,0.6-1.4,0.8c-0.6,0.2-1.2,0.3-2,0.3c-0.8,0-1.6-0.1-2.3-0.4c-0.7-0.3-1.3-0.6-1.7-1.1
			l0.5-0.8c0.1-0.1,0.1-0.2,0.2-0.2c0.1-0.1,0.2-0.1,0.3-0.1c0.1,0,0.3,0.1,0.5,0.2c0.2,0.1,0.4,0.2,0.6,0.4
			c0.2,0.1,0.5,0.3,0.8,0.4c0.3,0.1,0.7,0.2,1.2,0.2c0.4,0,0.8-0.1,1.1-0.2s0.6-0.3,0.8-0.4c0.2-0.2,0.4-0.4,0.5-0.6
			c0.1-0.2,0.1-0.5,0.1-0.8c0-0.3-0.1-0.6-0.3-0.8c-0.2-0.2-0.4-0.4-0.7-0.6c-0.3-0.2-0.6-0.3-1-0.4c-0.4-0.1-0.8-0.2-1.2-0.4
			c-0.4-0.1-0.8-0.3-1.2-0.4c-0.4-0.2-0.7-0.4-1-0.6c-0.3-0.2-0.5-0.6-0.7-0.9c-0.2-0.4-0.3-0.8-0.3-1.3c0-0.5,0.1-0.9,0.3-1.3
			c0.2-0.4,0.5-0.8,0.8-1.1c0.4-0.3,0.8-0.6,1.3-0.8c0.5-0.2,1.1-0.3,1.8-0.3c0.8,0,1.5,0.1,2.1,0.4c0.6,0.2,1.2,0.6,1.6,1
			L246.1,576.1z"/>
		<path class="st0" d="M258,590.3v-16.2h1.3c0.3,0,0.5,0.1,0.6,0.4l0.2,1.4c0.5-0.6,1.1-1.1,1.8-1.5s1.4-0.6,2.3-0.6
			c0.7,0,1.3,0.1,1.9,0.4c0.6,0.3,1,0.7,1.4,1.2s0.7,1.2,0.9,1.9s0.3,1.7,0.3,2.7c0,0.9-0.1,1.7-0.4,2.5c-0.2,0.8-0.6,1.4-1,2
			c-0.4,0.6-1,1-1.6,1.3c-0.6,0.3-1.4,0.5-2.2,0.5c-0.7,0-1.4-0.1-1.9-0.4c-0.5-0.2-1-0.6-1.4-1v5.3H258z M263.4,575.6
			c-0.7,0-1.3,0.2-1.8,0.5s-1,0.8-1.4,1.3v5.8c0.4,0.5,0.8,0.9,1.3,1.1c0.5,0.2,1,0.3,1.6,0.3c1.1,0,2-0.4,2.6-1.2
			c0.6-0.8,0.9-1.9,0.9-3.4c0-0.8-0.1-1.5-0.2-2s-0.3-1-0.6-1.4c-0.3-0.4-0.6-0.6-1-0.8C264.3,575.7,263.9,575.6,263.4,575.6z"/>
		<path class="st0" d="M282,586.2H281c-0.2,0-0.4,0-0.5-0.1c-0.1-0.1-0.2-0.2-0.3-0.4l-0.2-1.1c-0.3,0.3-0.6,0.5-0.9,0.8
			c-0.3,0.2-0.6,0.4-1,0.6s-0.7,0.3-1.1,0.4c-0.4,0.1-0.8,0.1-1.3,0.1c-0.5,0-0.9-0.1-1.3-0.2c-0.4-0.1-0.8-0.3-1.1-0.6
			c-0.3-0.3-0.5-0.6-0.7-1c-0.2-0.4-0.3-0.9-0.3-1.4c0-0.5,0.1-0.9,0.4-1.4c0.3-0.4,0.7-0.8,1.3-1.2c0.6-0.3,1.3-0.6,2.3-0.8
			s2.1-0.3,3.5-0.3v-0.9c0-0.9-0.2-1.7-0.6-2.1c-0.4-0.5-1-0.7-1.8-0.7c-0.5,0-1,0.1-1.3,0.2c-0.4,0.1-0.7,0.3-0.9,0.4
			s-0.5,0.3-0.7,0.4c-0.2,0.1-0.4,0.2-0.6,0.2c-0.1,0-0.3,0-0.4-0.1c-0.1-0.1-0.2-0.2-0.3-0.3l-0.4-0.7c0.7-0.6,1.4-1.1,2.2-1.4
			c0.8-0.3,1.6-0.5,2.6-0.5c0.7,0,1.3,0.1,1.8,0.3s1,0.5,1.3,0.9s0.6,0.9,0.8,1.4c0.2,0.6,0.3,1.2,0.3,1.9V586.2z M276.4,584.9
			c0.4,0,0.7,0,1-0.1c0.3-0.1,0.6-0.2,0.9-0.3c0.3-0.1,0.5-0.3,0.8-0.5c0.3-0.2,0.5-0.4,0.7-0.7v-2.5c-1,0-1.8,0.1-2.5,0.2
			c-0.7,0.1-1.2,0.3-1.7,0.5c-0.4,0.2-0.7,0.4-0.9,0.7c-0.2,0.3-0.3,0.6-0.3,0.9c0,0.3,0.1,0.6,0.2,0.8c0.1,0.2,0.2,0.4,0.4,0.6
			c0.2,0.1,0.4,0.3,0.6,0.3C275.9,584.8,276.2,584.9,276.4,584.9z"/>
		<path class="st0" d="M287.1,586.2v-12.1h1.2c0.2,0,0.4,0,0.5,0.1c0.1,0.1,0.1,0.2,0.2,0.5l0.1,1.9c0.4-0.8,0.9-1.5,1.5-2
			c0.6-0.5,1.3-0.7,2.1-0.7c0.3,0,0.6,0,0.9,0.1c0.3,0.1,0.5,0.2,0.8,0.3l-0.3,1.6c-0.1,0.2-0.2,0.3-0.4,0.3c-0.1,0-0.3,0-0.5-0.1
			c-0.2-0.1-0.6-0.1-1-0.1c-0.7,0-1.4,0.2-1.9,0.6c-0.5,0.4-0.9,1.1-1.2,1.9v7.7H287.1z"/>
		<path class="st0" d="M307.5,568.6v17.6h-2.1v-17.6H307.5z"/>
		<path class="st0" d="M322,586.2h-0.9c-0.2,0-0.4,0-0.5-0.1c-0.1-0.1-0.2-0.2-0.3-0.4l-0.2-1.1c-0.3,0.3-0.6,0.5-0.9,0.8
			c-0.3,0.2-0.6,0.4-1,0.6s-0.7,0.3-1.1,0.4c-0.4,0.1-0.8,0.1-1.3,0.1c-0.5,0-0.9-0.1-1.3-0.2c-0.4-0.1-0.8-0.3-1.1-0.6
			c-0.3-0.3-0.5-0.6-0.7-1s-0.3-0.9-0.3-1.4c0-0.5,0.1-0.9,0.4-1.4c0.3-0.4,0.7-0.8,1.3-1.2c0.6-0.3,1.3-0.6,2.3-0.8
			s2.1-0.3,3.5-0.3v-0.9c0-0.9-0.2-1.7-0.6-2.1s-1-0.7-1.8-0.7c-0.5,0-1,0.1-1.3,0.2c-0.4,0.1-0.7,0.3-0.9,0.4
			c-0.3,0.2-0.5,0.3-0.7,0.4c-0.2,0.1-0.4,0.2-0.6,0.2c-0.1,0-0.3,0-0.4-0.1c-0.1-0.1-0.2-0.2-0.3-0.3l-0.4-0.7
			c0.7-0.6,1.4-1.1,2.2-1.4c0.8-0.3,1.6-0.5,2.6-0.5c0.7,0,1.3,0.1,1.8,0.3c0.5,0.2,1,0.5,1.3,0.9c0.4,0.4,0.6,0.9,0.8,1.4
			c0.2,0.6,0.3,1.2,0.3,1.9V586.2z M316.5,584.9c0.4,0,0.7,0,1-0.1c0.3-0.1,0.6-0.2,0.9-0.3c0.3-0.1,0.5-0.3,0.8-0.5
			c0.2-0.2,0.5-0.4,0.7-0.7v-2.5c-1,0-1.8,0.1-2.5,0.2s-1.2,0.3-1.7,0.5c-0.4,0.2-0.7,0.4-0.9,0.7c-0.2,0.3-0.3,0.6-0.3,0.9
			c0,0.3,0.1,0.6,0.2,0.8c0.1,0.2,0.2,0.4,0.4,0.6c0.2,0.1,0.4,0.3,0.6,0.3C316,584.8,316.2,584.9,316.5,584.9z"/>
		<path class="st0" d="M333.7,590.3v-16.2h1.3c0.3,0,0.5,0.1,0.6,0.4l0.2,1.4c0.5-0.6,1.1-1.1,1.8-1.5s1.4-0.6,2.3-0.6
			c0.7,0,1.3,0.1,1.9,0.4c0.6,0.3,1,0.7,1.4,1.2s0.7,1.2,0.9,1.9s0.3,1.7,0.3,2.7c0,0.9-0.1,1.7-0.4,2.5c-0.2,0.8-0.6,1.4-1,2
			c-0.4,0.6-1,1-1.6,1.3c-0.6,0.3-1.4,0.5-2.2,0.5c-0.7,0-1.4-0.1-1.9-0.4c-0.5-0.2-1-0.6-1.4-1v5.3H333.7z M339,575.6
			c-0.7,0-1.3,0.2-1.8,0.5c-0.5,0.3-1,0.8-1.4,1.3v5.8c0.4,0.5,0.8,0.9,1.3,1.1c0.5,0.2,1,0.3,1.6,0.3c1.1,0,2-0.4,2.6-1.2
			c0.6-0.8,0.9-1.9,0.9-3.4c0-0.8-0.1-1.5-0.2-2c-0.1-0.6-0.3-1-0.6-1.4c-0.3-0.4-0.6-0.6-1-0.8C340,575.7,339.5,575.6,339,575.6z"
			/>
		<path class="st0" d="M357.6,586.2h-0.9c-0.2,0-0.4,0-0.5-0.1c-0.1-0.1-0.2-0.2-0.3-0.4l-0.2-1.1c-0.3,0.3-0.6,0.5-0.9,0.8
			c-0.3,0.2-0.6,0.4-1,0.6s-0.7,0.3-1.1,0.4c-0.4,0.1-0.8,0.1-1.3,0.1c-0.5,0-0.9-0.1-1.3-0.2c-0.4-0.1-0.8-0.3-1.1-0.6
			c-0.3-0.3-0.5-0.6-0.7-1s-0.3-0.9-0.3-1.4c0-0.5,0.1-0.9,0.4-1.4c0.3-0.4,0.7-0.8,1.3-1.2c0.6-0.3,1.3-0.6,2.3-0.8
			s2.1-0.3,3.5-0.3v-0.9c0-0.9-0.2-1.7-0.6-2.1s-1-0.7-1.8-0.7c-0.5,0-1,0.1-1.3,0.2c-0.4,0.1-0.7,0.3-0.9,0.4
			c-0.3,0.2-0.5,0.3-0.7,0.4c-0.2,0.1-0.4,0.2-0.6,0.2c-0.1,0-0.3,0-0.4-0.1c-0.1-0.1-0.2-0.2-0.3-0.3l-0.4-0.7
			c0.7-0.6,1.4-1.1,2.2-1.4c0.8-0.3,1.6-0.5,2.6-0.5c0.7,0,1.3,0.1,1.8,0.3c0.5,0.2,1,0.5,1.3,0.9c0.4,0.4,0.6,0.9,0.8,1.4
			c0.2,0.6,0.3,1.2,0.3,1.9V586.2z M352.1,584.9c0.4,0,0.7,0,1-0.1c0.3-0.1,0.6-0.2,0.9-0.3c0.3-0.1,0.5-0.3,0.8-0.5
			c0.2-0.2,0.5-0.4,0.7-0.7v-2.5c-1,0-1.8,0.1-2.5,0.2s-1.2,0.3-1.7,0.5c-0.4,0.2-0.7,0.4-0.9,0.7c-0.2,0.3-0.3,0.6-0.3,0.9
			c0,0.3,0.1,0.6,0.2,0.8c0.1,0.2,0.2,0.4,0.4,0.6c0.2,0.1,0.4,0.3,0.6,0.3C351.6,584.8,351.8,584.9,352.1,584.9z"/>
		<path class="st0" d="M369.7,576.1c-0.1,0.2-0.2,0.3-0.4,0.3c-0.1,0-0.3,0-0.4-0.1c-0.2-0.1-0.3-0.2-0.6-0.3
			c-0.2-0.1-0.5-0.2-0.8-0.3c-0.3-0.1-0.7-0.1-1.1-0.1c-0.4,0-0.7,0-1,0.1s-0.5,0.2-0.7,0.4c-0.2,0.2-0.4,0.3-0.5,0.6
			c-0.1,0.2-0.2,0.4-0.2,0.7c0,0.3,0.1,0.6,0.3,0.8s0.4,0.4,0.7,0.5c0.3,0.2,0.6,0.3,1,0.4s0.8,0.2,1.2,0.4
			c0.4,0.1,0.8,0.3,1.2,0.4c0.4,0.2,0.7,0.4,1,0.6c0.3,0.2,0.5,0.5,0.7,0.9c0.2,0.3,0.3,0.8,0.3,1.2c0,0.6-0.1,1.1-0.3,1.5
			c-0.2,0.5-0.5,0.9-0.9,1.2c-0.4,0.3-0.9,0.6-1.4,0.8c-0.6,0.2-1.2,0.3-2,0.3c-0.8,0-1.6-0.1-2.3-0.4c-0.7-0.3-1.3-0.6-1.7-1.1
			l0.5-0.8c0.1-0.1,0.1-0.2,0.2-0.2s0.2-0.1,0.3-0.1c0.1,0,0.3,0.1,0.5,0.2c0.2,0.1,0.4,0.2,0.6,0.4c0.2,0.1,0.5,0.3,0.8,0.4
			s0.7,0.2,1.2,0.2c0.4,0,0.8-0.1,1.1-0.2c0.3-0.1,0.6-0.3,0.8-0.4c0.2-0.2,0.4-0.4,0.5-0.6c0.1-0.2,0.1-0.5,0.1-0.8
			c0-0.3-0.1-0.6-0.3-0.8c-0.2-0.2-0.4-0.4-0.7-0.6c-0.3-0.2-0.6-0.3-1-0.4c-0.4-0.1-0.8-0.2-1.2-0.4c-0.4-0.1-0.8-0.3-1.2-0.4
			c-0.4-0.2-0.7-0.4-1-0.6c-0.3-0.2-0.5-0.6-0.7-0.9c-0.2-0.4-0.3-0.8-0.3-1.3c0-0.5,0.1-0.9,0.3-1.3s0.5-0.8,0.8-1.1
			s0.8-0.6,1.3-0.8c0.5-0.2,1.1-0.3,1.8-0.3c0.8,0,1.5,0.1,2.1,0.4c0.6,0.2,1.2,0.6,1.6,1L369.7,576.1z"/>
		<path class="st0" d="M381.9,576.1c-0.1,0.2-0.2,0.3-0.4,0.3c-0.1,0-0.3,0-0.4-0.1c-0.2-0.1-0.3-0.2-0.6-0.3
			c-0.2-0.1-0.5-0.2-0.8-0.3c-0.3-0.1-0.7-0.1-1.1-0.1c-0.4,0-0.7,0-1,0.1s-0.5,0.2-0.7,0.4c-0.2,0.2-0.4,0.3-0.5,0.6
			c-0.1,0.2-0.2,0.4-0.2,0.7c0,0.3,0.1,0.6,0.3,0.8s0.4,0.4,0.7,0.5c0.3,0.2,0.6,0.3,1,0.4s0.8,0.2,1.2,0.4
			c0.4,0.1,0.8,0.3,1.2,0.4c0.4,0.2,0.7,0.4,1,0.6c0.3,0.2,0.5,0.5,0.7,0.9c0.2,0.3,0.3,0.8,0.3,1.2c0,0.6-0.1,1.1-0.3,1.5
			c-0.2,0.5-0.5,0.9-0.9,1.2c-0.4,0.3-0.9,0.6-1.4,0.8c-0.6,0.2-1.2,0.3-2,0.3c-0.8,0-1.6-0.1-2.3-0.4c-0.7-0.3-1.3-0.6-1.7-1.1
			l0.5-0.8c0.1-0.1,0.1-0.2,0.2-0.2s0.2-0.1,0.3-0.1c0.1,0,0.3,0.1,0.5,0.2c0.2,0.1,0.4,0.2,0.6,0.4c0.2,0.1,0.5,0.3,0.8,0.4
			s0.7,0.2,1.2,0.2c0.4,0,0.8-0.1,1.1-0.2c0.3-0.1,0.6-0.3,0.8-0.4c0.2-0.2,0.4-0.4,0.5-0.6c0.1-0.2,0.1-0.5,0.1-0.8
			c0-0.3-0.1-0.6-0.3-0.8c-0.2-0.2-0.4-0.4-0.7-0.6c-0.3-0.2-0.6-0.3-1-0.4c-0.4-0.1-0.8-0.2-1.2-0.4c-0.4-0.1-0.8-0.3-1.2-0.4
			c-0.4-0.2-0.7-0.4-1-0.6c-0.3-0.2-0.5-0.6-0.7-0.9c-0.2-0.4-0.3-0.8-0.3-1.3c0-0.5,0.1-0.9,0.3-1.3s0.5-0.8,0.8-1.1
			s0.8-0.6,1.3-0.8c0.5-0.2,1.1-0.3,1.8-0.3c0.8,0,1.5,0.1,2.1,0.4c0.6,0.2,1.2,0.6,1.6,1L381.9,576.1z"/>
		<path class="st0" d="M390.1,570.3c0,0.2,0,0.4-0.1,0.6c-0.1,0.2-0.2,0.3-0.3,0.5c-0.1,0.1-0.3,0.2-0.5,0.3
			c-0.2,0.1-0.4,0.1-0.6,0.1s-0.4,0-0.6-0.1c-0.2-0.1-0.3-0.2-0.5-0.3c-0.1-0.1-0.2-0.3-0.3-0.5c-0.1-0.2-0.1-0.4-0.1-0.6
			s0-0.4,0.1-0.6c0.1-0.2,0.2-0.3,0.3-0.5c0.1-0.1,0.3-0.2,0.5-0.3c0.2-0.1,0.4-0.1,0.6-0.1s0.4,0,0.6,0.1c0.2,0.1,0.3,0.2,0.5,0.3
			c0.1,0.1,0.2,0.3,0.3,0.5C390.1,569.9,390.1,570.1,390.1,570.3z M389.6,574.1v12.1h-2.1v-12.1H389.6z"/>
		<path class="st0" d="M400.2,573.9c0.9,0,1.7,0.1,2.4,0.4c0.7,0.3,1.3,0.7,1.8,1.3c0.5,0.5,0.9,1.2,1.1,2c0.3,0.8,0.4,1.6,0.4,2.6
			c0,1-0.1,1.8-0.4,2.6c-0.3,0.8-0.6,1.4-1.1,2s-1.1,1-1.8,1.2c-0.7,0.3-1.5,0.4-2.4,0.4s-1.7-0.1-2.4-0.4s-1.3-0.7-1.8-1.2
			s-0.9-1.2-1.2-2c-0.3-0.8-0.4-1.6-0.4-2.6c0-0.9,0.1-1.8,0.4-2.6c0.3-0.8,0.7-1.4,1.2-2c0.5-0.5,1.1-1,1.8-1.3
			S399.3,573.9,400.2,573.9z M400.2,584.7c1.2,0,2.1-0.4,2.7-1.2c0.6-0.8,0.9-1.9,0.9-3.3c0-1.4-0.3-2.6-0.9-3.4
			c-0.6-0.8-1.5-1.2-2.7-1.2c-0.6,0-1.1,0.1-1.6,0.3c-0.4,0.2-0.8,0.5-1.1,0.9c-0.3,0.4-0.5,0.9-0.7,1.4c-0.1,0.6-0.2,1.2-0.2,1.9
			s0.1,1.4,0.2,1.9c0.1,0.6,0.4,1,0.7,1.4c0.3,0.4,0.7,0.7,1.1,0.9C399,584.6,399.6,584.7,400.2,584.7z"/>
		<path class="st0" d="M410.5,586.2v-12.1h1.3c0.3,0,0.5,0.1,0.6,0.4l0.2,1.3c0.5-0.6,1.1-1,1.8-1.4c0.6-0.4,1.4-0.5,2.2-0.5
			c0.7,0,1.2,0.1,1.7,0.3c0.5,0.2,0.9,0.5,1.3,0.9c0.3,0.4,0.6,0.9,0.8,1.5c0.2,0.6,0.3,1.2,0.3,1.9v7.7h-2.1v-7.7
			c0-0.9-0.2-1.6-0.6-2.1c-0.4-0.5-1.1-0.8-1.9-0.8c-0.6,0-1.2,0.2-1.8,0.5c-0.5,0.3-1,0.7-1.5,1.2v8.9H410.5z"/>
		<path class="st0" d="M426.7,583.4v-1.5c0-0.1,0-0.2,0.1-0.3s0.2-0.2,0.3-0.3l5.4-2.7c0.2-0.1,0.3-0.2,0.5-0.2
			c0.2-0.1,0.4-0.1,0.6-0.2c-0.2,0-0.4-0.1-0.6-0.2s-0.3-0.1-0.5-0.2l-5.4-2.7c-0.2-0.1-0.3-0.2-0.3-0.3s-0.1-0.2-0.1-0.4v-1.5
			l9.2,4.8v0.9L426.7,583.4z"/>
	</g>
	<g>
		<g>
			<path class="st0" d="M157.2,531.3c-2.6,3.5-4.8,6.2-4.8,7c0,1.6,3.3,1.6,5.2,1.6c10.9,0,20.6-1.1,28.6-9.1
				c0.7-0.8,1.2-1.3,1.4-1.3c0.2,0,0.3,0.2,0.3,0.4c0,0.7-0.5,1.8-0.7,2.5l-3.6,9.8h-47.6l32.9-42.2c1.3-1.6,2.3-3,2.3-3.8
				c0-1.7-3-1.7-6.2-1.7c-11.5,0-17.9,0.8-25.6,9.7c-0.2,0.2-0.5,0.6-0.8,0.6c-0.2,0-0.2-0.3-0.2-0.4c0.1-0.6,0.2-1.1,0.4-1.5
				l4-10.8H186L157.2,531.3z"/>
			<path class="st0" d="M234.9,508.7c0-9.5-4.5-16.1-14.6-16.1c-8.8,0-13.5,7.8-14.6,16.1H234.9z M205.4,510.5
				c-0.2,2.2-0.3,4.2-0.3,6.3c0,17.9,9.3,24.6,18.6,24.6c11.1,0,19.3-7.6,22.6-18.9h2c-3.1,13.3-12.7,21.3-25.8,21.3
				c-16.4,0-28.6-11.1-28.6-26.5c0-15.4,12.2-26.5,28.6-26.5c10.5,0,23.2,6.4,24.6,19.8H205.4z"/>
			<path class="st0" d="M267.5,505.7h0.2c2.2-8.2,6.9-15,19.7-15c10.6,0,20.5,5.5,20.5,20.8v18.6c-0.2,9.2,1.1,10.5,3.9,11.5
				c0.7,0.2,1.3,0.5,1.3,0.7c0,0.3-0.5,0.3-1.4,0.3c-0.9,0-3.4-0.3-8.7-0.3c-5.2,0-8.7,0.3-9.9,0.3c-0.6,0-1.1,0-1.1-0.3
				c0-0.2,0.2-0.5,0.9-0.6c3.5-0.4,5.2-3,5.2-11.6v-18.7c0-8.9-4-18.3-14.2-18.3c-11.5,0-15.2,11.8-15.2,25.3v11.8
				c0,6.1,0.3,10.6,4.6,11.4c0.7,0.1,1.1,0.3,1.1,0.6c0,0.4-0.3,0.5-0.9,0.5c-0.7,0-4.6-0.3-9.8-0.3s-9.6,0.3-10.3,0.3
				c-0.6,0-0.9-0.1-0.9-0.5c0-0.3,0.4-0.5,1.1-0.6c4.8-0.8,5.2-5.3,5.2-11.4v-23.9c0-5.8-0.7-9.1-3.4-10.2c-1.1-0.5-1.7-0.8-1.7-1
				c0-0.3,0.7-0.3,1.8-0.5c4.6-0.9,8.6-1.5,12.2-2.8V505.7z"/>
			<path class="st0" d="M320.9,479.8c0-3.1,2.6-5.8,5.7-5.8c3.3,0,5.8,2.7,5.8,5.8c0,3.1-2.5,5.7-5.8,5.7
				C323.5,485.5,320.9,482.9,320.9,479.8 M322.5,502.1c0-4.8-1.8-5.4-3.4-6.3c-0.6-0.3-1.6-0.3-1.6-0.6c0-0.2,1.1-0.3,1.7-0.4
				c4.5-0.9,8.6-1.8,13.2-3.1v38.4c0,6.1,0.6,10.4,5,11.3c0.6,0.1,1,0.3,1,0.9c0,0.3-0.5,0.3-1.4,0.3c-1,0-4.4-0.3-9.6-0.3
				c-5.2,0-8.7,0.3-9.6,0.3c-0.9,0-1.4,0-1.4-0.3c0-0.6,0.4-0.8,1-0.9c4.4-0.9,5.1-5.2,5.1-11.3V502.1z"/>
			<path class="st0" d="M373.3,527.1c-2-3.4-6.3-11.9-11.5-11.9c-3.4,0-3.4,3.9-3.4,8v6.9c0,6.1,0.5,9.7,5.2,11.4
				c0.5,0.1,0.9,0.3,0.9,0.6c0,0.3-0.5,0.5-1.1,0.5c-0.5,0-4.7-0.3-10-0.3c-5.2,0-9.1,0.3-9.6,0.3c-0.5,0-1-0.2-1-0.5
				c0-0.3,0.3-0.4,0.7-0.6c4.6-1.4,5-7.1,5-15.2V488c0-5.7-0.4-10.1-3.6-10.6c-1.1-0.2-1.6-0.5-1.6-0.9c0-0.3,0.9-0.5,1.8-0.8
				c4.6-1.2,8.7-2.1,13.3-3.4v41.7l16.2-13.5c2.2-1.8,3.6-3.4,3.6-5c0-1.3-1.2-2.1-1.6-2.6c-0.4-0.3-1-0.3-1-0.8
				c0-0.4,0.6-0.4,1.4-0.4c0.9,0,4.2,0.4,9.3,0.4c4.7,0,5.9-0.4,9-0.4c0.9,0,1.3,0,1.3,0.6c0,0.5-1.6,0.6-3.2,1
				c-5.5,1.3-11.1,4.7-15.6,8.2l-14.3,10.8v0.2c13.1,0.3,16,5.3,22.7,15.9c3.3,5.2,7.3,10.6,12.5,13c0.5,0.2,1,0.4,1,0.7
				c0,0.3-0.5,0.5-1.1,0.5c-0.5,0-4.8-0.3-9.6-0.3c-2.2,0-4.4,0.3-6.4,0.3L373.3,527.1z"/>
			<path class="st0" d="M439.3,513.4h-5.7c-10.4,0-21.1,3.1-21.1,15.8c0,7,5.1,12.2,12,12.2c11.4,0,14.9-12,14.9-21.2V513.4z
					M449.2,534c0,3.2,0.5,6.1,3.5,7.4c0.6,0.3,1,0.3,1,0.6c0,0.3-0.6,0.4-1.3,0.4H442c-1.4-3.1-2.1-6.5-2.3-9.8h-0.2
				c-3.8,7.8-9.4,11.3-17.8,11.3c-10,0-20.4-4.6-20.4-16.1c0-14.7,22.4-16.1,32.5-16.1h5.5v-3.2c0-9.3-4.3-15.8-14.1-15.8
				c-8.9,0-14.1,2.6-17.6,11.1c-0.4,0.9-0.6,1.6-0.8,1.6c-0.2,0-0.3-0.5-0.5-1.1l-2.5-8.7c7.9-4.1,14.2-4.8,22.8-4.8
				c11,0,22.6,4,22.6,16.1V534z"/>
		</g>
	</g>
	<g>
		<ellipse class="st1" cx="295.8" cy="358.2" rx="69.4" ry="65.8"/>
		<g>
			<path class="st2" d="M293.8,279.2c-43.6,0-79,35.4-79,79s35.4,79,79,79s79-35.4,79-79S337.4,279.2,293.8,279.2z M341.2,383.2
				c-0.1,0.3-0.1,0.7-0.3,0.8c-0.7,0.4-1.4,0.7-2.2,1c-1.7,0.8-3.3,1.4-5.3,0.6c-0.9-0.4-1.9-0.2-3.1-0.3c0.3,2.1,0.7,4,0.9,6
				c0.5,3.8,0.9,7.6,1.2,11.4c0.1,1.2-0.1,2.5-0.5,3.6c-1.2,3.8-4.5,5.4-8.4,4c-1.4-0.5-2.7-1.3-3.9-2.2c-2.5-1.8-5-3.8-7.4-5.7
				c-0.3-0.2-0.5-0.6-0.8-0.8c-0.1-0.1-0.2-0.2-0.3-0.3c-0.6-0.4-1.3-0.7-1.9-1.1c-8.6-5.7-17-11.6-26.1-16.5
				c-5.8-3.1-11.7-5.7-17.9-7.7c-0.8-0.3-1.7-0.5-2.6-0.5c-1.2-0.1-1.9,0.5-2,1.7c-0.3,4-0.1,7.9,0.6,11.9
				c0.9,5.1,3.2,9.7,5.8,14.1c0.3,0.5,0.8,0.8,1,1.2c0.3,0.6,0.6,1.5,0.4,2c-0.2,0.5-1.1,0.9-1.6,0.9c-6.3-0.2-10.8-3-11.9-10
				c-1.1-6.9-1.9-13.8-1.2-20.8c0.1-1.3,0.3-2.5,0.5-3.8c0.6-3.2,2.5-5.2,5.6-6.3c6.9-2.4,13.8-4.9,20.6-7.5
				c12.7-4.8,25.3-9.7,38-14.5c0.3-0.1,0.7-0.3,1-0.4c0-0.1,0-0.2,0-0.3c-2.3-0.3-4.7-0.7-7-0.8c-11.8-0.4-23.6-0.2-35.4,0.5
				c-4.5,0.3-8.9,0.7-13.4,1.2c-2.1,0.2-4.2,0.8-6.3,1.2c-1.1,0.2-2.1,0.4-2.8-0.6c-0.7-1-0.3-2,0.2-2.9c1.7-2.7,4.1-4.1,7.3-4.1
				c5.9,0,11.9,0,17.8,0c4.7,0,9.3-0.1,14,0c1.6,0,3.3,0.2,4.9,0.3l0.1-0.3c-3.8-2.4-7.7-4.8-11.5-7.3c0.1-0.2,0.2-0.3,0.3-0.5
				c1,0.5,2,0.9,3.1,1.4c-3.1-3.2-24.3-13.3-30.7-14.6c0.6,0.4,1,0.6,1.4,0.9c0,0.1,0,0.2,0,0.2c-0.5,0-0.9,0-1.3-0.1
				c-3-0.8-6-1.6-9-2.5c-0.6-0.2-1.4-0.9-1.4-1.4c0-0.6,0.7-1.5,1.2-1.7c5-1.7,10-2.7,15.2-0.6c7.1,2.8,13.6,6.8,20,10.9
				c2.1,1.4,4.2,2.8,6.4,4.2c0.3,0.2,1,0.3,1.3,0.2c8.9-4.7,17.9-9,26.3-14.5c1.9-1.2,3.8-2.5,5.6-3.9c0.6-0.5,1.2-1.2,1.6-1.9
				c0.6-0.9,1.5-1.4,2.5-1.1c2.7,0.7,4.6,2.5,5.8,4.9c0.6,1.1-0.3,3-1.6,3.8c-4.1,2.4-8.2,4.8-12.3,7.1
				c-6.9,3.9-13.8,7.8-20.8,11.8c2,1.4,4.1,2.9,6.2,4.4c0.3,0.2,0.7,0.1,1,0.2c6.1,0.3,12.2,0.8,18,2.5c0.8,0.2,1.5,0.6,2.2,0.9
				c2.2,1.2,2.4,3.3,0.3,4.8c-1.3,0.9-2.7,1.8-4.2,2.4c-4.6,2-9.3,4-14,5.9c-11.8,4.8-23.6,9.5-35.4,14.2c-0.6,0.2-1.1,0.5-1.6,0.7
				c16.4,2.2,32.8,4.4,49.3,6.6c0-0.9,0.1-1.9,0-2.9c-0.1-1.8-0.4-3.6-0.5-5.4c-0.1-0.9,0.2-1.6,1.1-1.8c0.9-0.3,1.9-0.3,2.3,0.6
				c0.8,1.7,1.3,3.5,1.9,5.3c-0.1,0-0.2,0.1-0.3,0.1c-0.5-1.4-0.9-2.8-1.4-4.3c-0.1,0-0.1,0-0.2,0.1c0.6,2.5,1.3,5,1.9,7.5
				c0.1,0.4,0.2,0.8,0.3,1.2c0.3,1.1,1,1.6,2.1,1.5c0.9-0.1,1.8-0.1,2.7,0.1c1.9,0.4,3.7,0.9,5.6,1.6c1.1,0.4,2,1,3,1.7
				C342.2,381.8,341.9,382.5,341.2,383.2z"/>
			<path class="st2" d="M323.4,384.4c-0.1-0.8,0.3-1.9-1-2.2c-1.9-0.5-3.7-1.2-5.6-1.6c-3-0.7-6-1.2-8.9-1.9
				c-0.8-0.2-1.6-0.5-2.4-0.7c-0.7-0.2-1.4-0.5-2.1-0.6c-1.1-0.2-2.3-0.1-3.4-0.2c-5.2-0.7-10.4-1.5-15.6-2.3
				c-1.2-0.2-2.3-0.3-3.5-0.4c0,0.1,0,0.1-0.1,0.2c2.5,1.5,5,2.9,7.6,4.5c-0.6,0.3-0.8,0.4-1.1,0.6c1.5,1,2.9,1.8,4.5,2.9
				c0.1-1.3,0.8-0.9,1.3-0.5c5.8,3.8,11.7,7.5,17.5,11.4c1.5,1,2.9,2.3,4.3,3.4c1.9,1.6,3.9,3.3,5.8,4.9c0.6,0.5,1.1,0.6,1.2-0.3
				c0.5-2.8,1.1-5.6,1.4-8.5c0.2-1.7-0.2-3.5-0.2-5.2C323.2,386.7,323.5,385.5,323.4,384.4z"/>
		</g>
	</g>
</g>
</svg>
